<svg width="104" height="29" viewBox="0 0 104 29" fill="none" xmlns="http://www.w3.org/2000/svg">
<path d="M11.3381 0H0V27.7236L11.3381 0Z" fill="#D9D9D9"/>
<path d="M19.3152 0H30.6385V27.7236L19.3152 0Z" fill="#D9D9D9"/>
<path d="M15.3266 10.218L22.5431 27.7236H17.8084L15.6516 22.1502H10.3704L15.3266 10.218Z" fill="#D9D9D9"/>
<path d="M49.1361 17.6303L50.4732 21.5499C50.5174 21.6481 50.584 21.6933 50.7022 21.6933H53.2725C53.413 21.6933 53.4351 21.6253 53.413 21.4818L48.1022 6.40039C48.0798 6.27956 48.0577 6.2569 47.9395 6.2569H44.7486C44.6601 6.2569 44.6083 6.32485 44.6083 6.42305C44.5641 7.216 44.4975 7.45767 44.4015 7.6918L39.6668 21.4592C39.6447 21.6253 39.6965 21.6933 39.8294 21.6933H42.1265C42.2668 21.6933 42.3334 21.6481 42.385 21.5045L43.6481 17.6303H49.1361ZM44.3793 15.0702C45.0737 12.9254 45.9896 10.1764 46.3589 8.60559H46.381C46.839 10.2519 47.9174 13.5144 48.4049 15.0702H44.3793Z" fill="#D9D9D9"/>
<path d="M60.2404 21.9275C61.6217 21.9275 63.0915 21.6707 64.5837 21.0136C64.7018 20.9684 64.724 20.9156 64.724 20.8023C64.6797 20.3793 64.6279 19.7676 64.6279 19.2994V5.10145C64.6279 5.01083 64.6279 4.96552 64.5171 4.96552H62.0132C61.9171 4.96552 61.8729 5.01083 61.8729 5.13167V9.94234C61.4814 9.89702 61.208 9.87436 60.8832 9.87436C56.8427 9.87436 54.3608 12.6007 54.3608 16.0067C54.3608 19.9565 56.9092 21.9275 60.2404 21.9275ZM61.8729 19.2994C61.4591 19.4352 61.0013 19.4882 60.536 19.4882C58.7041 19.4882 57.2046 18.4309 57.2046 15.8632C57.2046 13.59 58.7483 12.2457 60.7945 12.2457C61.208 12.2457 61.5699 12.291 61.8729 12.4119V19.2994Z" fill="#D9D9D9"/>
<path d="M72.7122 9.87433C69.2628 9.87433 67.1282 12.578 67.1282 15.916C67.1282 18.8991 68.827 21.9275 72.6606 21.9275C75.9031 21.9275 78.1781 19.4882 78.1781 15.8405C78.1781 12.6233 76.2503 9.87433 72.7122 9.87433ZM72.5719 12.2457C74.5218 12.2457 75.3491 13.96 75.3491 15.916C75.3491 18.3327 74.1304 19.5334 72.7122 19.5334C70.9616 19.5334 69.9277 18.0306 69.9277 15.8631C69.9277 13.6353 71.0282 12.2457 72.5719 12.2457Z" fill="#D9D9D9"/>
<path d="M80.7671 4.96552C80.6711 4.96552 80.6045 5.01083 80.6045 5.13167V21.2025C80.6045 21.2706 80.6711 21.3914 80.7671 21.414C81.8676 21.7614 83.0199 21.9275 84.2091 21.9275C87.6143 21.9275 90.9234 19.7676 90.9234 15.4176C90.9234 12.2684 88.8109 9.87436 85.5018 9.87436C84.7409 9.87436 84.0318 9.9952 83.4114 10.2067L83.3819 5.15432C83.3819 4.98817 83.3376 4.96552 83.175 4.96552H80.7671ZM88.0944 15.7046C88.0944 18.31 86.3512 19.5335 84.4676 19.5335C84.0762 19.5335 83.729 19.5108 83.4114 19.4126V12.5554C83.7733 12.4119 84.2091 12.291 85.0143 12.291C86.8313 12.291 88.0944 13.4692 88.0944 15.7046Z" fill="#D9D9D9"/>
<path d="M100.268 16.5504C101.391 16.5504 102.314 16.5277 102.632 16.4522C102.75 16.4295 102.794 16.3842 102.816 16.2861C102.883 16.0293 102.912 15.4931 102.912 14.8361C102.912 12.6006 101.598 9.87433 98.1998 9.87433C94.7283 9.87433 92.8003 12.7668 92.8003 16.0293C92.8003 18.9217 94.2924 21.9275 98.473 21.9275C100.039 21.9275 101.051 21.6707 101.923 21.2477C102.011 21.2025 102.056 21.1269 102.056 20.991V19.035C102.056 18.9217 101.989 18.8991 101.923 18.9444C101.051 19.322 100.105 19.5108 99.0715 19.5108C96.73 19.5108 95.6663 18.1892 95.5998 16.5504H100.268ZM95.5998 14.5264C95.7845 13.3785 96.4936 12.1324 98.0816 12.1324C99.8322 12.1324 100.29 13.6353 100.29 14.315C100.29 14.3376 100.29 14.4358 100.29 14.5038C100.194 14.5264 99.8988 14.5264 99.0271 14.5264H95.5998Z" fill="#D9D9D9"/>
</svg>
