<svg width="26" height="22" viewBox="0 0 26 22" fill="none" xmlns="http://www.w3.org/2000/svg">
<path d="M0.892334 10.5426V1.63477H6.84053C9.30035 1.63477 11.2944 3.62885 11.2944 6.08867C11.2944 8.54849 9.30035 10.5426 6.84053 10.5426M0.892334 10.5426V20.3666H8.21366C10.9265 20.3666 13.1257 18.1674 13.1257 15.4546C13.1257 12.7417 10.9265 10.5426 8.21366 10.5426H6.84053M0.892334 10.5426H6.84053M17.7517 6.51497H24.4915M17.1371 14.8118H25.1077V14.4898C25.1077 12.2888 23.3234 10.5046 21.1224 10.5046C18.9214 10.5046 17.1371 12.2888 17.1371 14.4898V14.8118ZM17.1371 14.8118V16.0396C17.1371 18.3847 19.0381 20.2857 21.3832 20.2857C22.878 20.2857 24.2626 19.4997 25.0289 18.2162L25.1077 18.0843" stroke="black" stroke-width="1.5" stroke-miterlimit="10" stroke-linecap="round" stroke-linejoin="round"/>
</svg>
