<svg width="28" height="28" viewBox="0 0 28 28" fill="none" xmlns="http://www.w3.org/2000/svg">
<path d="M9.60552 2.35397C10.9716 1.83862 12.4522 1.55664 13.9987 1.55664C17.5802 1.55664 20.8083 3.06895 23.0791 5.48968M9.60552 2.35397C12.5128 5.52172 18.7449 14.419 20.4149 24.666M9.60552 2.35397C5.38414 3.94642 2.25615 7.76715 1.65646 12.3815M20.4149 24.666C18.5412 25.7951 16.3459 26.4446 13.9987 26.4446C10.9532 26.4446 8.16313 25.351 5.99998 23.5352M20.4149 24.666C23.6683 22.7054 25.9516 19.2989 26.3745 15.3364M1.65646 12.3815C1.58759 12.9115 1.55206 13.4519 1.55206 14.0006C1.55206 17.8284 3.28067 21.2525 5.99998 23.5352M1.65646 12.3815C7.92634 12.3815 14.6229 13.6055 23.0791 5.48968M23.0791 5.48968C25.1668 7.71525 26.4454 10.7087 26.4454 14.0006C26.4454 14.4519 26.4214 14.8976 26.3745 15.3364M5.99998 23.5352C8.53927 19.3764 16.1692 11.9143 26.3745 15.3364" stroke="black" stroke-width="1.5" stroke-miterlimit="10" stroke-linecap="round" stroke-linejoin="round"/>
</svg>
