<svg width="69" height="25" viewBox="0 0 69 25" fill="none" xmlns="http://www.w3.org/2000/svg">
<g clip-path="url(#clip0_338_1413)">
<path d="M0.956787 0.201965V19.1279L3.39764 19.1373V10.125H9.26506V7.74044H3.38825V2.5771H11.0394V0.201965H0.956787ZM15.4141 4.051C15.8374 4.051 16.2433 3.88285 16.5426 3.58356C16.8419 3.28426 17.01 2.87833 17.01 2.45506C17.01 2.03179 16.8419 1.62585 16.5426 1.32656C16.2433 1.02726 15.8374 0.859117 15.4141 0.859117C14.9909 0.859117 14.5849 1.02726 14.2856 1.32656C13.9863 1.62585 13.8182 2.03179 13.8182 2.45506C13.8182 2.87833 13.9863 3.28426 14.2856 3.58356C14.5849 3.88285 14.9909 4.051 15.4141 4.051ZM14.1843 6.42613V19.1373H16.6251V6.42613H14.1843Z" fill="#D9D9D9"/>
<path fill-rule="evenodd" clip-rule="evenodd" d="M25.6468 6.06C22.4174 6.06 20.1643 8.79187 20.1643 12.0401C20.1643 15.2883 22.4174 18.0202 25.6468 18.0202C27.1301 18.0202 28.3505 17.4569 29.2424 16.5181V18.2079C29.2486 18.7128 29.1546 19.2139 28.966 19.6824C28.7773 20.1508 28.4977 20.5771 28.1433 20.9367C27.7889 21.2964 27.3667 21.5822 26.9011 21.7778C26.4355 21.9732 25.9359 22.0745 25.4309 22.0757C24.6517 22.0757 23.8819 21.7753 23.2717 21.3435L22.0513 23.4558C22.9949 24.0658 24.0858 24.4098 25.2087 24.4514C26.3316 24.4931 27.4449 24.2309 28.4313 23.6926C29.4176 23.1543 30.2403 22.3597 30.8127 21.3927C31.385 20.4257 31.6858 19.3222 31.6832 18.1985V6.43551H29.2424V7.57145C28.3505 6.63266 27.1301 6.06939 25.6468 6.06939V6.06ZM22.5958 12.0401C22.5958 10.0217 24.1354 8.43513 25.9191 8.43513C27.7028 8.43513 29.233 10.0311 29.233 12.0401C29.233 14.0585 27.6934 15.6356 25.9191 15.6356C24.1354 15.6356 22.5958 14.0585 22.5958 12.0401Z" fill="#D9D9D9"/>
<path d="M40.4516 8.43516C39.7535 8.4475 39.0883 8.73413 38.5999 9.23306C38.1114 9.73195 37.8391 10.4031 37.8417 11.1014V19.1374H35.4009V6.42615H37.8417V7.59025C38.2069 7.10625 38.6812 6.71537 39.2262 6.44945C39.771 6.18353 40.371 6.0501 40.9773 6.06002C42.6859 6.06002 44.0002 6.90493 44.7512 8.20046C45.1702 7.55101 45.7436 7.01555 46.4203 6.64202C47.0969 6.26848 47.8555 6.06852 48.6284 6.06002C51.3978 6.06002 53.1346 8.29434 53.1346 11.0638V19.1374H50.7125V11.092C50.7151 10.3937 50.4427 9.72257 49.9543 9.22367C49.4659 8.72474 48.8008 8.43811 48.1027 8.42577C47.4046 8.43811 46.7394 8.72474 46.251 9.22367C45.7626 9.72257 45.4902 10.3937 45.4929 11.092V19.128H43.052V11.092C43.0546 10.3953 42.7835 9.72557 42.2971 9.22691C41.8107 8.72824 41.148 8.44054 40.4516 8.42577V8.43516Z" fill="#D9D9D9"/>
<path fill-rule="evenodd" clip-rule="evenodd" d="M66.1179 7.87176C65.5636 7.29381 64.8972 6.83502 64.1595 6.52348C63.4218 6.21194 62.6284 6.0542 61.8276 6.0599C58.2039 6.0599 55.6316 9.12035 55.6316 12.7816C55.6316 16.4429 58.2039 19.5033 61.8276 19.5033C62.6281 19.5074 63.4211 19.3489 64.1586 19.0375C64.896 18.726 65.5626 18.2681 66.1179 17.6915V19.1372H68.5493V6.42603H66.1085V7.87176H66.1179ZM58.0631 12.7816C58.0631 10.3595 59.9219 8.43504 62.0905 8.43504C64.2497 8.43504 66.1179 10.3595 66.1179 12.7816C66.1179 15.2037 64.2591 17.1188 62.0905 17.1188C59.9312 17.1188 58.0631 15.2037 58.0631 12.7816Z" fill="#D9D9D9"/>
</g>
<defs>
<clipPath id="clip0_338_1413">
<rect width="68.5315" height="24.4085" fill="white" transform="translate(0.468506 0.201965)"/>
</clipPath>
</defs>
</svg>
