<svg width="28" height="28" viewBox="0 0 28 28" fill="none" xmlns="http://www.w3.org/2000/svg">
<path d="M20.6805 7.31951L20.6833 7.32122M12.3407 26.3277H15.6593C19.393 26.3277 21.2598 26.3277 22.6859 25.6011C23.9403 24.962 24.9602 23.9421 25.5993 22.6877C26.326 21.2616 26.326 19.3948 26.326 15.6611V12.3424C26.326 8.60876 26.326 6.74192 25.5993 5.31584C24.9602 4.06143 23.9403 3.04156 22.6859 2.4024C21.2598 1.67578 19.393 1.67578 15.6593 1.67578H12.3407C8.60699 1.67578 6.74015 1.67578 5.31407 2.4024C4.05966 3.04156 3.03979 4.06143 2.40063 5.31584C1.67401 6.74192 1.67401 8.60877 1.67401 12.3425V15.6611C1.67401 19.3948 1.67401 21.2616 2.40063 22.6877C3.03979 23.9421 4.05966 24.962 5.31407 25.6011C6.74015 26.3277 8.607 26.3277 12.3407 26.3277ZM18.8867 14.0022C18.8867 16.6996 16.7 18.8863 14.0026 18.8863C11.3051 18.8863 9.11845 16.6996 9.11845 14.0022C9.11845 11.3048 11.3051 9.11807 14.0026 9.11807C16.7 9.11807 18.8867 11.3048 18.8867 14.0022Z" stroke="black" stroke-width="1.5" stroke-miterlimit="10" stroke-linecap="round" stroke-linejoin="round"/>
</svg>
