<svg width="93" height="33" viewBox="0 0 93 33" fill="none" xmlns="http://www.w3.org/2000/svg">
<g clip-path="url(#clip0_25_675)">
<path d="M39.7177 11.7348H43.2067L38.2486 24.4278H35.1268L30.0768 11.7348H33.6577L36.6877 20.228L39.7177 11.7348ZM44.3086 24.3345H47.7058V11.7348H44.3086V24.3345ZM49.2667 20.228H52.6639C52.7558 21.0679 53.3067 21.9079 54.7757 21.9079C56.0612 21.9079 56.7039 21.4413 56.7039 20.7879C56.7039 18.6413 49.8176 20.6946 49.8176 15.6547C49.8176 13.3215 51.7458 11.4548 54.7757 11.4548C58.5403 11.4548 59.8257 13.8814 59.9175 15.7481H56.7039C56.6121 14.9081 56.0612 14.2548 54.8676 14.2548C53.7658 14.2548 53.123 14.8148 53.123 15.4681C53.123 17.6147 60.0093 15.4681 60.0093 20.6946C60.0093 22.9345 58.0812 24.7078 54.7757 24.7078C50.8276 24.6145 49.4503 22.6546 49.2667 20.228ZM61.6621 24.3345H65.0593V11.7348H61.6621V24.3345ZM73.0474 21.6279C74.792 21.6279 76.1692 20.3213 76.1692 17.988C76.1692 15.7481 74.792 14.3481 73.0474 14.3481C71.3029 14.3481 69.9256 15.6547 69.9256 17.988C69.9256 20.3213 71.3029 21.6279 73.0474 21.6279ZM66.5284 17.988C66.5284 14.3481 69.0993 11.3615 73.0474 11.3615C76.9956 11.3615 79.5665 14.3481 79.5665 17.988C79.5665 21.6279 76.9956 24.6145 73.0474 24.6145C69.0993 24.6145 66.5284 21.6279 66.5284 17.988ZM84.2492 13.2281C84.8001 12.1082 86.0855 11.3615 87.9219 11.3615C90.9518 11.3615 92.5127 13.4148 92.5127 16.4014V24.3345H89.1155V16.7747C89.1155 15.2814 88.4728 14.2548 87.0037 14.2548C85.351 14.2548 84.4328 15.2814 84.4328 17.0547V24.3345H81.0355V11.7348H84.2492V13.2281Z" fill="#D9D9D9"/>
<path fill-rule="evenodd" clip-rule="evenodd" d="M32.005 31.9877H0.695251V0.161865H32.005V31.9877ZM13.5498 8.28171C13.5498 9.40168 12.7235 10.1484 11.7135 10.1484C10.7035 10.1484 9.87715 9.40168 9.87715 8.28171C9.87715 7.16174 10.7035 6.41509 11.7135 6.41509C12.7235 6.41509 13.5498 7.25507 13.5498 8.28171ZM7.85711 20.0417L7.85716 20.0415L9.23442 14.3483H7.12262L7.76534 11.9217H12.8153L10.7953 20.0415C10.7035 20.5081 10.6117 20.9748 10.6117 21.2548C10.6117 21.7214 10.8871 21.9081 11.2544 22.0014C11.5299 22.0947 13.458 22.0014 14.468 19.6681L15.7535 14.5349H13.6417L14.2844 12.1083H18.8753L18.3244 14.8149C19.1507 13.3216 20.8034 11.8283 22.3643 11.8283C24.1089 11.8283 25.4861 13.0416 25.4861 15.3749C25.4861 15.9349 25.3943 16.5882 25.2107 17.3349L24.3843 20.5081C24.3843 20.6481 24.3614 20.7881 24.3384 20.9281C24.3154 21.0681 24.2925 21.2081 24.2925 21.3481C24.2925 21.9081 24.5679 22.1881 24.9352 22.1881C25.3025 22.1881 25.8534 21.9081 26.4043 20.2281L27.5979 20.6948C26.8634 23.2147 25.5779 24.2413 24.017 24.2413C22.1807 24.2413 21.2625 23.1214 21.2625 21.6281C21.2625 21.1614 21.3543 20.6948 21.4461 20.2281L22.3643 16.9615C22.4561 16.5882 22.4561 16.2149 22.4561 15.9349C22.4561 14.9083 21.8134 14.2549 20.8034 14.2549C19.518 14.2549 18.6916 15.1883 18.2325 16.9615L16.488 23.9614H13.458L14.0089 21.7214C13.0908 23.2147 11.8971 24.148 10.3362 24.148C8.49988 24.148 7.67353 23.028 7.67353 21.4413C7.67353 20.9748 7.76531 20.5083 7.85711 20.0417Z" fill="#D9D9D9"/>
</g>
<defs>
<clipPath id="clip0_25_675">
<rect width="91.8175" height="32.6658" fill="white" transform="translate(0.695251 0.161865)"/>
</clipPath>
</defs>
</svg>
