<svg width="28" height="28" viewBox="0 0 28 28" fill="none" xmlns="http://www.w3.org/2000/svg">
<path d="M7.70459 20.3802V12.3656M13.3521 20.3802V18.1379M13.3521 18.1379V12.3656M13.3521 18.1379C13.3522 16.7256 14.1763 12.3656 17.0501 12.3656C18.8454 12.3656 20.3008 13.821 20.3008 15.6163V20.3802M7.69956 7.61979L7.70234 7.6215M22.4426 26.442H5.55731C3.34798 26.442 1.55731 24.6513 1.55731 22.442V5.55664C1.55731 3.34731 3.34798 1.55664 5.55731 1.55664H22.4426C24.652 1.55664 26.4426 3.34731 26.4426 5.55664V22.442C26.4426 24.6513 24.652 26.442 22.4426 26.442Z" stroke="black" stroke-width="1.5" stroke-miterlimit="10" stroke-linecap="round" stroke-linejoin="round"/>
</svg>
