<svg width="93" height="33" viewBox="0 0 93 33" fill="none" xmlns="http://www.w3.org/2000/svg">
<g clip-path="url(#clip0_25_671)">
<path fill-rule="evenodd" clip-rule="evenodd" d="M20.2496 0.717762L2.73039 2.01663C1.31724 2.13952 0.825439 3.06653 0.825439 4.17787V23.4575C0.825439 24.323 1.1315 25.0636 1.87026 26.0531L5.98833 31.4286C6.66482 32.2942 7.2801 32.4796 8.57188 32.4181L28.9163 31.1818C30.6366 31.0589 31.1294 30.2548 31.1294 28.8955V7.20573C31.1294 6.50333 30.8529 6.30097 30.0392 5.70134C29.9924 5.66748 29.9456 5.63357 29.8989 5.59963L24.3075 1.64477C22.9545 0.657375 22.4015 0.532362 20.2496 0.717762ZM9.03202 6.85082C7.37086 6.96312 6.9941 6.98855 6.05059 6.21834L3.65173 4.30288C3.40794 4.05498 3.53036 3.74562 4.14459 3.68418L20.9862 2.44888C22.4004 2.32492 23.1371 2.81968 23.6901 3.25193L26.5787 5.35278C26.7021 5.41529 27.0092 5.78503 26.6399 5.78503L9.24732 6.83599L9.03202 6.85082ZM7.09541 28.7101V10.2972C7.09541 9.49304 7.34131 9.12224 8.07796 9.05974L28.0541 7.88589C28.7316 7.82444 29.0377 8.25669 29.0377 9.05974V27.3498C29.0377 28.1539 28.9142 28.8341 27.8082 28.8955L8.69219 30.0079C7.58616 30.0694 7.09541 29.6996 7.09541 28.7101ZM25.9655 11.2846C26.0879 11.8408 25.9655 12.397 25.4114 12.4606L24.4901 12.6438V26.2385C23.6901 26.6707 22.9534 26.9176 22.3382 26.9176C21.3546 26.9176 21.1087 26.6082 20.372 25.6823L14.3469 16.1665V25.3729L16.2529 25.8062C16.2529 25.8062 16.2529 26.9186 14.7152 26.9186L10.4758 27.1655C10.3523 26.9176 10.4758 26.2999 10.9053 26.177L12.0124 25.8687V13.6959L10.4758 13.5708C10.3523 13.0146 10.6594 12.2116 11.5206 12.1491L16.0693 11.8418L22.3382 21.4806V12.9532L20.7403 12.7689C20.6169 12.0876 21.1087 11.5929 21.7229 11.5325L25.9655 11.2846Z" fill="#D9D9D9"/>
<path d="M44.5541 23.1597V14.7796H44.6986L50.7185 23.1597H52.6139V10.8449H50.5064V19.2165H50.3618L44.3419 10.8449H42.4391V23.1586H44.5551L44.5541 23.1597ZM58.5705 23.3483C61.3514 23.3483 63.0431 21.5218 63.0431 18.4918C63.0431 15.4703 61.3429 13.6354 58.5705 13.6354C55.8075 13.6354 54.0989 15.4788 54.0989 18.4918C54.0989 21.5218 55.7822 23.3483 58.5705 23.3483ZM58.5705 21.5727C57.1003 21.5727 56.2592 20.4465 56.2592 18.4918C56.2592 16.5457 57.1003 15.411 58.5705 15.411C60.0332 15.411 60.8743 16.5457 60.8743 18.4918C60.8743 20.4465 60.0417 21.5727 58.5705 21.5727ZM64.9692 11.5367V13.8833H63.4991V15.5731H64.9692V20.6679C64.9692 22.4774 65.8198 23.2031 67.9538 23.2031C68.3612 23.2031 68.7527 23.1608 69.0588 23.1004V21.4445C68.8034 21.4699 68.6419 21.4869 68.3443 21.4869C67.4609 21.4869 67.0694 21.0779 67.0694 20.1562V15.5731H69.0588V13.8833H67.0694V11.5356H64.9692V11.5367ZM70.322 23.1597H72.4222V13.8229H70.322V23.1597ZM71.3679 12.2793C72.0645 12.2793 72.6259 11.7146 72.6259 11.007C72.6259 10.2982 72.0655 9.72614 71.3679 9.72614C70.6798 9.72614 70.1099 10.2982 70.1099 11.007C70.1099 11.7146 70.6798 12.2783 71.3679 12.2783V12.2793ZM78.1835 23.3483C80.9634 23.3483 82.6551 21.5218 82.6551 18.4918C82.6551 15.4703 80.9549 13.6354 78.1835 13.6354C75.4195 13.6354 73.7109 15.4788 73.7109 18.4918C73.7109 21.5218 75.3942 23.3483 78.1835 23.3483ZM78.1835 21.5727C76.7123 21.5727 75.8701 20.4465 75.8701 18.4918C75.8701 16.5457 76.7123 15.411 78.1835 15.411C79.6452 15.411 80.4874 16.5457 80.4874 18.4918C80.4874 20.4465 79.6537 21.5727 78.1835 21.5727ZM83.91 23.1597H86.0186V17.7237C86.0186 16.3497 86.8102 15.4788 88.0671 15.4788C89.3515 15.4788 89.9457 16.196 89.9457 17.621V23.1597H92.0554V17.1178C92.0554 14.8898 90.924 13.6354 88.8502 13.6354C87.4634 13.6354 86.5284 14.2753 86.0862 15.3167H85.9416V13.8229H83.91V23.1597Z" fill="#D9D9D9"/>
</g>
<defs>
<clipPath id="clip0_25_671">
<rect width="91.8175" height="31.783" fill="white" transform="translate(0.825439 0.645752)"/>
</clipPath>
</defs>
</svg>
