<svg width="104" height="23" viewBox="0 0 104 23" fill="none" xmlns="http://www.w3.org/2000/svg">
<g clip-path="url(#clip0_338_1396)">
<path fill-rule="evenodd" clip-rule="evenodd" d="M35.2689 15.2072L35.2488 14.9474H34.9809H33.3169H33.0159L33.0282 15.2397C33.1655 18.4964 35.4244 20.6535 39.4413 20.6535C43.2725 20.6535 45.8778 18.7186 45.8778 15.7898C45.8778 14.2061 45.3126 13.0854 44.2355 12.3201C43.4071 11.7313 42.4163 11.3995 40.7735 11.0532C40.6637 11.0301 40.5495 11.0064 40.4122 10.9784C40.3311 10.9617 40.0389 10.9023 40.0543 10.9055C37.071 10.2975 36.1249 9.7694 36.1249 8.1966C36.1249 6.5702 37.4931 5.53448 39.788 5.53448C42.0207 5.53448 43.4318 6.85998 43.4973 8.94653L43.5061 9.21876H43.7862H45.4271H45.7226L45.716 8.93147C45.6387 5.67903 43.3936 3.49016 39.7649 3.49016C36.2082 3.49016 33.86 5.5704 33.86 8.26399C33.86 9.84318 34.4245 10.9429 35.5033 11.6777C36.3252 12.2375 37.2771 12.5342 38.9565 12.8638C39.0352 12.8792 39.1172 12.8952 39.2149 12.914C39.2754 12.9257 39.3436 12.9388 39.4718 12.9634C41.061 13.269 41.762 13.4576 42.4017 13.8192C43.1958 14.268 43.5898 14.9091 43.5898 15.9021C43.5898 17.6263 42.0985 18.6092 39.4875 18.6092C36.988 18.6092 35.4368 17.3907 35.2689 15.2072ZM50.5578 3.20934V2.92853H50.2689H48.628H48.3391V3.20934V20.0582V20.339H48.628H50.2689H50.5578V20.0582V17.054L52.8931 14.8431L57.0638 20.2271L57.1505 20.339H57.2946H59.3284H59.9103L59.5584 19.8884L54.4649 13.3669L59.1625 8.82247L59.6583 8.34262H58.9586H56.7631H56.6429L56.5581 8.42558L50.5578 14.2997V3.20934ZM71.2884 15.0822H71.5597L71.5768 14.8189C71.5798 14.7725 71.5842 14.696 71.5886 14.6038C71.5919 14.5308 71.5949 14.4596 71.5968 14.3924C71.5993 14.3195 71.6004 14.2532 71.6004 14.1948C71.6004 10.6701 69.1988 8.07304 65.6493 8.07304C62.1064 8.07304 59.5826 10.8375 59.5826 14.3296C59.5826 17.923 61.9922 20.6086 65.6724 20.6086C68.4551 20.6086 70.605 19.0036 71.3795 16.5692L71.4953 16.2054H71.1035H69.3933H69.1892L69.1209 16.3923C68.6345 17.7247 67.3177 18.6092 65.6955 18.6092C63.5748 18.6092 62.0962 17.1934 61.8299 15.0822H71.2884ZM61.8971 13.2176C62.2715 11.3272 63.7019 10.0724 65.6493 10.0724C67.6564 10.0724 69.0417 11.286 69.3446 13.2176H61.8971ZM78.8804 10.2522H79.1693V9.97134V8.62344V8.34262H78.8804H76.4653V5.36599V5.08518H76.1764H74.5355H74.2466V5.36599V8.34262H72.2938H72.0049V8.62344V9.97134V10.2522H72.2938H74.2466V16.9805C74.2466 19.1877 75.4245 20.3839 77.5862 20.3839C77.9634 20.3839 78.2889 20.362 78.5618 20.3251C78.7307 20.3023 78.8471 20.2787 78.9115 20.2614L79.1231 20.2042V19.9908V18.553V18.2046L78.7728 18.2786C78.7588 18.2816 78.7305 18.2872 78.69 18.2946C78.6212 18.3071 78.5448 18.3196 78.4628 18.3314C78.2528 18.3614 78.0443 18.3806 77.8525 18.384C77.8327 18.3843 77.8135 18.3845 77.7942 18.3845C76.8472 18.3845 76.4653 17.9522 76.4653 16.8681V10.2522H78.8804ZM85.7791 20.6086C88.8501 20.6086 91.0184 18.7196 91.5629 16.0466L91.6311 15.7112H91.2795H89.6155H89.3935L89.3363 15.9198C88.8699 17.6257 87.6038 18.6092 85.7791 18.6092C83.5021 18.6092 81.9311 16.8631 81.9311 14.352C81.9311 11.8215 83.4993 10.0724 85.7791 10.0724C87.6038 10.0724 88.8699 11.0559 89.3363 12.7618L89.3935 12.9704H89.6155H91.2795H91.6311L91.5629 12.6351C91.0184 9.96204 88.8501 8.07304 85.7791 8.07304C82.2117 8.07304 79.6893 10.8571 79.6893 14.352C79.6893 17.8278 82.2153 20.6086 85.7791 20.6086ZM95.7169 3.20934V2.92853H95.428H93.7871H93.4982V3.20934V20.0582V20.339H93.7871H95.428H95.7169V20.0582V13.2962C95.7169 11.2359 97.007 10.0275 98.964 10.0275C100.833 10.0275 101.772 11.0793 101.772 13.0715V20.0582V20.339H102.061H103.702H103.991V20.0582V12.757C103.991 9.94289 102.198 8.07304 99.2413 8.07304C97.7201 8.07304 96.4974 8.61474 95.7169 9.39225V3.20934Z" fill="#D9D9D9"/>
<path fill-rule="evenodd" clip-rule="evenodd" d="M5.75114 0.757254L13.1797 0L20.6083 0.757254L26.3594 8.20145L13.1797 23L0 8.20145L5.75114 0.757254Z" fill="#D9D9D9"/>
<path fill-rule="evenodd" clip-rule="evenodd" d="M5.33839 8.20135L13.1797 23L0 8.20135H5.33839Z" fill="#D9D9D9"/>
<path fill-rule="evenodd" clip-rule="evenodd" d="M21.0212 8.20135L13.1799 23L26.3596 8.20135H21.0212Z" fill="#D9D9D9"/>
<path fill-rule="evenodd" clip-rule="evenodd" d="M5.33838 8.20135H21.0209L13.1796 23L5.33838 8.20135Z" fill="#D9D9D9"/>
<path fill-rule="evenodd" clip-rule="evenodd" d="M13.1796 0L5.75108 0.757128L5.33838 8.20137L13.1796 0Z" fill="#D9D9D9"/>
<path fill-rule="evenodd" clip-rule="evenodd" d="M13.1799 0L20.6085 0.757128L21.0212 8.20137L13.1799 0Z" fill="#D9D9D9"/>
<path fill-rule="evenodd" clip-rule="evenodd" d="M26.3595 8.2014L20.6084 0.757141L21.0211 8.2014H26.3595Z" fill="#D9D9D9"/>
<path fill-rule="evenodd" clip-rule="evenodd" d="M0 8.2014L5.75109 0.757141L5.33839 8.2014H0Z" fill="#D9D9D9"/>
<path fill-rule="evenodd" clip-rule="evenodd" d="M13.1796 0L5.33838 8.20137H21.0209L13.1796 0Z" fill="#D9D9D9"/>
</g>
<defs>
<clipPath id="clip0_338_1396">
<rect width="104" height="23" fill="white"/>
</clipPath>
</defs>
</svg>
