<svg width="104" height="26" viewBox="0 0 104 26" fill="none" xmlns="http://www.w3.org/2000/svg">
<g clip-path="url(#clip0_338_1389)">
<path d="M32.7873 20.5735L34.0565 17.6069C35.4462 18.636 37.2589 19.1808 39.0719 19.1808C40.4013 19.1808 41.2473 18.6664 41.2473 17.8794C41.2169 15.6998 33.2405 17.395 33.1799 11.915C33.1495 9.13004 35.6273 6.98071 39.1325 6.98071C41.2169 6.98071 43.3021 7.49551 44.7823 8.67634L43.5963 11.7062C42.2343 10.8304 40.5521 10.2199 38.951 10.2199C37.8633 10.2199 37.1379 10.7342 37.1379 11.4007C37.1683 13.55 45.2057 12.3692 45.2963 17.6069C45.2963 20.4526 42.8787 22.4507 39.4341 22.4507C36.8965 22.4507 34.57 21.8454 32.7869 20.5735H32.7873ZM83.3261 16.5326C83.0057 17.1019 82.5396 17.5757 81.9757 17.9054C81.4119 18.2351 80.7705 18.4089 80.1173 18.409C78.0815 18.409 76.4313 16.7554 76.4313 14.7157C76.4313 12.676 78.0815 11.0224 80.1173 11.0224C80.7705 11.0224 81.4119 11.1963 81.9757 11.526C82.5396 11.8557 83.0057 12.3295 83.3261 12.8988L86.8547 10.94C85.5331 8.57798 83.0119 6.98071 80.1173 6.98071C75.8537 6.98071 72.3974 10.4434 72.3974 14.7157C72.3974 18.9875 75.8537 22.4507 80.1173 22.4507C83.0119 22.4507 85.5331 20.8534 86.8547 18.4914L83.3261 16.5326ZM47.5861 22.1478H51.9973V0.541809H47.5865L47.5861 22.1478ZM89.0825 0.541809V22.1478H93.4939V15.6746L98.7211 22.1478H104.36L97.7123 14.4578L103.876 7.28231H98.4793L93.4939 13.248V0.541809H89.0825ZM65.5881 7.28318V9.03948C64.8631 7.82831 63.0803 6.98071 61.2071 6.98071C57.3395 6.98071 54.2879 10.4018 54.2879 14.7006C54.2879 18.9992 57.3395 22.4507 61.2071 22.4507C63.0803 22.4507 64.8631 21.6031 65.5881 20.392V22.1478H69.9993V7.28318H65.5881ZM65.5881 16.5626C64.9537 17.622 63.6241 18.4086 62.1439 18.4086C60.1077 18.4086 58.4575 16.7554 58.4575 14.7157C58.4575 12.676 60.1077 11.0224 62.1439 11.0224C63.6241 11.0224 64.9537 11.8396 65.5881 12.929V16.5626Z" fill="#D9D9D9"/>
<path d="M9.49086 0.064209C8.0613 0.064209 6.90256 1.22554 6.90256 2.65771C6.90223 2.99795 6.9689 3.33493 7.09879 3.6494C7.22869 3.96388 7.41924 4.24968 7.65959 4.49051C7.89993 4.73135 8.18536 4.92248 8.49957 5.053C8.81378 5.18352 9.15063 5.25087 9.49086 5.25121H12.0796V2.65771C12.0802 1.97052 11.8077 1.31124 11.3223 0.824878C10.8368 0.338515 10.1781 0.0648982 9.49086 0.064209ZM9.49086 6.98021H2.5883C1.15874 6.98021 0 8.14154 0 9.57414C0 11.0063 1.15874 12.1677 2.5883 12.1677H9.4913C10.9204 12.1677 12.0796 11.0063 12.0796 9.57414C12.0796 8.14154 10.9204 6.98021 9.49086 6.98021Z" fill="#D9D9D9"/>
<path d="M25.8848 9.57414C25.8848 8.14154 24.7256 6.98021 23.296 6.98021C21.8664 6.98021 20.7078 8.14154 20.7078 9.57414V12.1677H23.296C23.9832 12.1669 24.642 11.8933 25.1274 11.407C25.6129 10.9206 25.8853 10.2613 25.8848 9.57414ZM18.9822 9.57414V2.65771C18.9827 1.97052 18.7103 1.31124 18.2249 0.824878C17.7394 0.338515 17.0807 0.0648982 16.3934 0.064209C14.9638 0.064209 13.8052 1.22554 13.8052 2.65771V9.57371C13.8052 11.0067 14.9638 12.1681 16.3934 12.1681C17.0807 12.1673 17.7394 11.8937 18.2249 11.4074C18.7103 10.921 18.9827 10.2618 18.9822 9.57457" fill="#D9D9D9"/>
<path d="M16.3934 26.0002C17.0807 25.9996 17.7394 25.726 18.2249 25.2395C18.7103 24.7532 18.9827 24.0939 18.9822 23.4068C18.9827 22.7195 18.7103 22.0603 18.2249 21.5739C17.7394 21.0876 17.0807 20.8139 16.3934 20.8132H13.8052V23.4068C13.8052 24.8389 14.9638 26.0002 16.3934 26.0002ZM16.3934 19.0842H23.2964C24.7256 19.0842 25.8848 17.9229 25.8848 16.4903C25.8853 15.8031 25.6129 15.1439 25.1274 14.6574C24.642 14.1711 23.9832 13.8975 23.296 13.8968H16.3934C14.9638 13.8968 13.8052 15.0582 13.8052 16.4903C13.8048 16.8305 13.8715 17.1675 14.0014 17.482C14.1312 17.7965 14.3218 18.0823 14.5622 18.3231C14.8025 18.5639 15.0879 18.755 15.4022 18.8856C15.7164 19.0161 16.0532 19.0835 16.3934 19.0838" fill="#D9D9D9"/>
<path d="M1.30599e-06 16.4903C-0.000340303 16.8305 0.0663371 17.1675 0.196226 17.482C0.326116 17.7965 0.516673 18.0823 0.757019 18.3231C0.997365 18.5639 1.28279 18.755 1.597 18.8856C1.91122 19.0161 2.24806 19.0835 2.5883 19.0838C3.27549 19.0831 3.93427 18.8094 4.41974 18.3231C4.9052 17.8367 5.17761 17.1775 5.17704 16.4903V13.8968H2.5883C1.15874 13.8968 1.30599e-06 15.0582 1.30599e-06 16.4903ZM6.90256 16.4903V23.4063C6.90256 24.8389 8.0613 26.0002 9.49086 26.0002C10.1781 25.9996 10.8368 25.726 11.3223 25.2395C11.8077 24.7532 12.0802 24.0939 12.0796 23.4068V16.4903C12.0799 16.1501 12.0132 15.813 11.8834 15.4985C11.7535 15.184 11.5628 14.8982 11.3225 14.6573C11.082 14.4165 10.7966 14.2254 10.4823 14.0949C10.168 13.9644 9.83115 13.8971 9.49086 13.8968C8.0613 13.8968 6.90256 15.0582 6.90256 16.4903Z" fill="#D9D9D9"/>
</g>
<defs>
<clipPath id="clip0_338_1389">
<rect width="104" height="26" fill="white"/>
</clipPath>
</defs>
</svg>
