<svg width="32" height="32" viewBox="0 0 32 32" fill="none" xmlns="http://www.w3.org/2000/svg">
<path d="M25.441 10.9567C25.441 18.5561 19.8407 26.0154 11.9945 26.0154C7.79358 26.0154 3.59314 23.75 3.59314 23.75C5.31951 23.75 8.26182 23.07 10.79 21.1624C9.52147 20.7403 7.42855 19.5653 5.40906 18.0966M25.441 10.9567C25.441 9.92101 25.1241 8.95936 24.582 8.1634M25.441 10.9567L28.4151 9.716M3.59314 5.98828C7.34714 10.9042 13.6025 12.5465 15.4545 12.2631C15.4873 11.842 15.5043 11.4066 15.5043 10.9567C15.5043 8.2127 17.7287 5.98828 20.4726 5.98828C22.1809 5.98828 23.6879 6.85045 24.582 8.1634M24.582 8.1634C25.1679 8.28506 26.5887 8.02036 27.5849 5.98828M4.68768 12.5277C6.07719 13.6749 6.49326 14.058 7.97991 14.7678" stroke="black" stroke-width="1.5" stroke-miterlimit="10" stroke-linecap="round" stroke-linejoin="round"/>
</svg>
