<svg width="104" height="26" viewBox="0 0 104 26" fill="none" xmlns="http://www.w3.org/2000/svg">
<path d="M33.5525 10.1324C33.5525 8.28431 31.7399 6.32157 28.6032 6.32157C25.0808 6.32157 21.2114 8.88333 20.62 13.9941C20.0158 19.1559 23.2554 21.45 26.5206 21.45C29.7859 21.45 31.4957 20.1882 33.244 18.5059C31.7399 16.6324 29.7988 17.499 29.426 17.6902C29.0146 17.8941 28.4875 18.1745 27.4077 18.1745C26.1478 18.1745 24.8623 17.6137 24.8623 15.2814C32.9355 14.4912 33.5525 11.9804 33.5525 10.1324ZM29.5545 10.4382C29.5031 11.0118 29.2717 11.9931 25.1837 12.5412C26.045 9.50784 27.6905 9.27843 28.449 9.27843C29.156 9.27843 29.6059 9.82647 29.5545 10.4382ZM15.8764 10.9353C15.8764 10.9353 14.1409 16.3392 13.9995 16.7853C13.9481 16.3265 12.6754 6.62745 12.6754 6.62745C9.71867 6.62745 8.13745 8.71765 7.30185 10.9225C7.30185 10.9225 5.19357 16.3392 5.0136 16.798C5.00074 16.3775 4.69221 10.9863 4.69221 10.9863C4.51224 8.28431 2.01829 6.6402 0 6.6402L2.44252 21.3353C5.54067 21.3225 7.21187 19.2451 8.08603 17.0402C8.08603 17.0402 9.95006 12.2608 10.0272 12.0441C10.0401 12.248 11.3642 21.3353 11.3642 21.3353C14.4752 21.3353 16.1464 19.3853 17.0462 17.2569L21.4042 6.6402C18.3318 6.6402 16.712 8.71765 15.8764 10.9353ZM44.9681 6.29608C43.0527 6.29608 41.5871 7.32843 40.353 8.8451V8.83235L41.4586 0C38.9132 0 36.8435 2.19216 36.445 5.4549L34.5167 21.2206C35.9822 21.2206 37.5377 20.8 38.3733 19.7294C39.1189 20.6853 40.2373 21.45 41.8957 21.45C46.1894 21.45 49.1333 16.5049 49.1333 11.8657C49.1075 7.63431 47.0378 6.29608 44.9681 6.29608ZM44.5696 13.8794C44.1197 16.4667 42.667 18.2255 41.2658 18.2255C39.8517 18.2255 39.2475 17.601 39.2475 17.601C39.5174 15.3324 39.6846 13.9431 40.1988 12.7451C40.713 11.5471 41.9342 9.63529 43.2069 9.63529C44.4539 9.63529 45.0195 11.2794 44.5696 13.8794ZM59.8546 6.6402H56.8593L56.8722 6.48725C57.0779 4.55 57.5407 3.53039 59.0705 3.36471C60.1117 3.26274 60.5745 2.72745 60.6902 2.14118C60.7802 1.68235 61.063 0.0892157 61.063 0.0892157C55.0467 0.0509804 53.157 2.62549 52.6685 6.55098L52.6556 6.6402H52.5914C51.6143 6.6402 50.5345 7.73627 50.3545 9.12549L50.2902 9.63529H52.2957L50.6116 23.4255L50.0974 25.898C50.1617 25.898 50.2388 25.9108 50.3031 25.9108C53.1184 25.8088 54.9182 23.6039 55.3167 20.4049L56.6279 9.63529H57.5664C58.492 9.63529 59.5718 8.71765 59.7647 7.18824L59.8546 6.6402ZM75.4354 6.38529C71.9773 6.38529 68.712 8.90882 67.7093 12.8725C66.7066 16.8363 68.2235 21.5265 73.3142 21.5265C78.3921 21.5265 81.3231 16.6451 81.3231 12.5794C81.3231 8.53921 78.5592 6.38529 75.4354 6.38529ZM76.8366 13.752C76.6566 15.549 75.8596 18.2765 73.6742 18.2765C71.4759 18.2765 71.7844 15.0902 72.003 13.5735C72.2344 11.9549 73.1471 9.64804 75.114 9.64804C76.8752 9.64804 77.0423 11.7255 76.8366 13.752ZM98.4079 10.9353C98.4079 10.9353 96.6724 16.3392 96.531 16.7853C96.4796 16.3265 95.2069 6.62745 95.2069 6.62745C92.2502 6.62745 90.669 8.71765 89.8334 10.9225C89.8334 10.9225 87.7251 16.3392 87.5451 16.798C87.5323 16.3775 87.2237 10.9863 87.2237 10.9863C87.0438 8.28431 84.5498 6.6402 82.5315 6.6402L84.9612 21.3353C88.0593 21.3225 89.7305 19.2451 90.6047 17.0402C90.6047 17.0402 92.4687 12.2608 92.533 12.0441C92.5459 12.248 93.87 21.3353 93.87 21.3353C96.981 21.3353 98.6522 19.3853 99.552 17.2569L103.91 6.6402C100.85 6.6402 99.2307 8.71765 98.4079 10.9353ZM62.6828 0.0892157L60.1632 20.2392L59.649 22.7245C59.7132 22.7245 59.7904 22.7373 59.8546 22.7373C62.5671 22.699 64.4954 20.3412 64.8554 17.3716L66.308 5.81176C66.7451 2.28137 64.624 0.0892157 62.6828 0.0892157Z" fill="#D9D9D9"/>
</svg>
