<svg width="104" height="33" viewBox="0 0 104 33" fill="none" xmlns="http://www.w3.org/2000/svg">
<g clip-path="url(#clip0_338_1375)">
<path fill-rule="evenodd" clip-rule="evenodd" d="M4.72393 23.2262L0.61499 18.5091L13.1924 13.8095L15.1495 19.3322L4.72393 23.2262Z" fill="#D9D9D9"/>
<path fill-rule="evenodd" clip-rule="evenodd" d="M4.69385 23.1389L4.50098 29.4672L17.0783 24.7676L15.1212 19.2449L4.69385 23.1389Z" fill="#D9D9D9"/>
<path fill-rule="evenodd" clip-rule="evenodd" d="M39.6462 10.1864C41.4407 15.5246 35.6583 22.5381 26.6633 25.9002C17.6682 29.2623 8.84615 27.7055 6.87866 22.4304L39.6462 10.1864Z" fill="#D9D9D9"/>
<path fill-rule="evenodd" clip-rule="evenodd" d="M39.6468 10.1864C37.6916 4.89958 28.861 3.33596 19.8565 6.70002C10.852 10.0641 5.06578 17.0902 6.87821 22.4207L39.6468 10.1864Z" fill="#D9D9D9"/>
<path fill-rule="evenodd" clip-rule="evenodd" d="M39.646 10.1864C40.7645 13.7582 34.4867 19.3099 25.519 22.6701C16.5514 26.0303 8.25884 25.9022 6.88037 22.4294L39.646 10.1864Z" fill="#D9D9D9"/>
<path fill-rule="evenodd" clip-rule="evenodd" d="M39.6458 10.1865C38.2872 6.69627 29.9833 6.57203 21.0015 9.92837C12.0197 13.2847 5.73525 18.8578 6.88019 22.4295L39.6458 10.1865Z" fill="#D9D9D9"/>
<path d="M24.5298 5.34225C23.6742 2.3043 22.7004 0.619359 21.5933 0.651388C19.4527 0.713506 18.7333 7.68136 19.4263 16.6098C20.1259 25.6333 21.9412 32.411 24.2065 32.3498C25.5566 32.3139 26.3167 30.0961 26.5843 26.2448C26.59 26.1672 26.5039 26.2205 26.5087 26.14C26.5087 26.14 26.4973 25.9993 26.4472 25.9963L26.1598 25.9769C25.9234 29.7137 25.2125 31.8684 24.1933 31.8975C22.3326 31.946 20.5343 25.2422 19.8631 16.5739C19.2013 8.04727 19.9141 1.15125 21.6046 1.10272C22.4045 1.07942 23.3017 2.63139 24.0949 5.4296L24.5298 5.33254V5.34225Z" fill="#D9D9D9"/>
<path d="M13.922 3.17385C12.0973 4.3269 14.8693 10.7299 19.8178 18.1073C24.8193 25.5614 29.6931 30.4998 31.6237 29.2846C32.7016 28.6052 32.399 26.5437 31.0092 23.432C30.978 23.3543 30.909 23.3029 30.8201 23.2932C30.7312 23.2835 30.6613 23.3223 30.6159 23.3902C30.5705 23.4582 30.5639 23.5455 30.6008 23.6203C31.8922 26.5126 32.1702 28.4053 31.3836 28.9003C29.7952 29.9 24.9753 25.014 20.1705 17.8511C15.4451 10.8066 12.7033 4.47055 14.1432 3.55917C14.909 3.07582 16.7262 4.24246 19.1305 6.76211C19.157 6.79123 19.3101 6.95332 19.3451 6.96399C19.4208 6.98729 19.3829 6.8252 19.4416 6.76502C19.4832 6.72329 19.5077 6.66602 19.5077 6.60585C19.5077 6.54567 19.486 6.48937 19.4444 6.4457C16.8765 3.75329 14.9497 2.51676 13.9116 3.17288L13.922 3.17385Z" fill="#D9D9D9"/>
<path fill-rule="evenodd" clip-rule="evenodd" d="M59.479 19.1759H64.2913V21.6441H56.6729V11.3559H64.2913V13.8251H59.479V15.0606H62.4855V17.5308H59.479V19.1759ZM81.3312 19.1759H85.7418V21.6441H78.5251V11.3559H81.3331L81.3312 19.1759ZM88.5489 11.3549H91.3569V21.6441H88.5489V11.3549ZM94.5616 11.3549V21.6441H97.1682V15.8808L100.777 21.6441H103.384V11.3539H100.777V17.2027L97.1682 11.3695L94.5616 11.3549Z" fill="#D9D9D9"/>
<path d="M69.9038 16.0885H71.9119C72.0697 16.0885 72.226 16.0565 72.3718 15.9944C72.5176 15.9324 72.65 15.8415 72.7616 15.7267C72.8732 15.6121 72.9616 15.4759 73.0218 15.3262C73.082 15.1764 73.1128 15.0159 73.1126 14.8539C73.113 14.6918 73.0822 14.5312 73.0221 14.3813C72.9618 14.2313 72.8734 14.0952 72.762 13.9804C72.6504 13.8656 72.5179 13.7746 72.3721 13.7125C72.2262 13.6503 72.0698 13.6183 71.9119 13.6183H69.9028V16.0885H69.9038ZM72.3128 11.3549C73.2166 11.3549 74.0827 11.7237 74.7218 12.3799C75.3609 13.036 75.7193 13.926 75.7193 14.8549C75.7193 15.7837 75.36 16.6728 74.7218 17.3299C74.0836 17.9869 73.2166 18.3548 72.3128 18.3548H70.1855V21.6441H67.2981V11.3539H72.3118L72.3128 11.3549Z" fill="#D9D9D9"/>
<path fill-rule="evenodd" clip-rule="evenodd" d="M53.4659 13.8241V11.3559H45.2461V13.825H49.8571L45.2461 19.1768V21.647H53.4659V19.1768H49.0553L53.4659 13.8241Z" fill="#D9D9D9"/>
</g>
<defs>
<clipPath id="clip0_338_1375">
<rect width="104" height="33" fill="white"/>
</clipPath>
</defs>
</svg>
