<svg width="29" height="29" viewBox="0 0 29 29" fill="none" xmlns="http://www.w3.org/2000/svg">
<path d="M14.472 28.4975C14.472 26.6843 14.1149 24.8889 13.421 23.2138C12.7271 21.5386 11.7101 20.0166 10.428 18.7345C9.14594 17.4524 7.62387 16.4354 5.94873 15.7415C4.2736 15.0476 2.47819 14.6905 0.665039 14.6905C2.47819 14.6905 4.2736 14.3334 5.94873 13.6395C7.62387 12.9456 9.14594 11.9286 10.428 10.6465C11.7101 9.36444 12.7271 7.84238 13.421 6.16724C14.1149 4.4921 14.472 2.6967 14.472 0.883545C14.472 4.54538 15.9267 8.05723 18.516 10.6465C21.1053 13.2358 24.6171 14.6905 28.279 14.6905C24.6171 14.6905 21.1053 16.1452 18.516 18.7345C15.9267 21.3238 14.472 24.8356 14.472 28.4975Z" fill="#08D76F"/>
</svg>
